<svg width="68" height="54" viewBox="0 0 68 54" fill="none" xmlns="http://www.w3.org/2000/svg">
<g clip-path="url(#clip0_79_7)">
<path d="M13.1933 8.21768C8.77567 12.3069 6.64572 18.313 6.64572 26.0504C6.64572 28.4435 6.36523 31.4217 6.07043 34.552C5.90489 36.3098 5.73483 38.1155 5.60741 39.8924C5.43304 42.3238 5.34213 44.6833 5.47697 46.696C5.60876 48.6631 5.96456 50.4898 6.83227 51.7033C7.08452 52.0561 7.46921 52.2361 7.7263 52.335C8.02159 52.4487 8.36952 52.5353 8.73825 52.6047C9.47976 52.7443 10.4377 52.8382 11.5192 52.8998C13.6902 53.0234 16.4819 53.0227 19.3067 52.9531C24.924 52.8147 30.8503 52.3989 32.4044 52.104C32.8957 52.0108 33.2605 51.7166 33.5153 51.4142C33.7697 51.1124 33.9676 50.742 34.1271 50.3578C34.4467 49.5882 34.6855 48.5824 34.8648 47.4663C35.2256 45.2201 35.3773 42.3155 35.3502 39.4475C35.3231 36.5784 35.1166 33.6938 34.7429 31.4844C34.5574 30.3871 34.3227 29.4073 34.0263 28.6683C33.8791 28.3012 33.697 27.9431 33.4627 27.653C33.2333 27.3691 32.8682 27.0476 32.3468 26.9799C30.5776 26.7502 28.0029 26.9374 25.6924 27.1055C25.4434 27.1236 25.1976 27.1415 24.9561 27.1586C23.6791 27.2491 22.5101 27.3209 21.5708 27.313C21.1015 27.3091 20.7165 27.2853 20.4199 27.241C20.2727 27.2189 20.1605 27.1938 20.0783 27.1689C19.9994 27.1449 19.9672 27.1269 19.9645 27.1254C19.9644 27.1253 19.9643 27.1253 19.9645 27.1254C19.9361 27.1075 19.8081 27.0051 19.7403 26.5623C19.6745 26.133 19.6947 25.5531 19.7901 24.8638C19.9591 23.6418 20.3287 22.2981 20.6229 21.2284C20.6599 21.0936 20.6958 20.9632 20.7299 20.8378C21.2637 18.8779 22.3144 17.3854 23.8876 16.3094C24.5709 15.842 25.9199 15.4799 27.423 15.2475C28.8744 15.023 30.2687 14.947 30.8838 14.947C31.6093 14.947 32.0306 14.3871 32.2065 14.1101C32.4264 13.7638 32.5982 13.3276 32.7352 12.8834C33.0137 11.9806 33.2168 10.816 33.3207 9.67046C33.4243 8.52788 33.4355 7.33446 33.2972 6.37855C33.229 5.90748 33.1156 5.42798 32.9173 5.02891C32.7278 4.64742 32.3515 4.13448 31.6741 4.02609C31.1504 3.94232 30.0148 3.91636 28.6141 3.96785C27.1814 4.02053 25.3884 4.15765 23.5114 4.42816C21.6375 4.69823 19.6579 5.10438 17.8615 5.70226C16.0794 6.29542 14.3995 7.10249 13.1933 8.21768Z" fill="#FAED23"/>
<path d="M19.9645 27.1254C19.9672 27.1269 19.9994 27.1449 20.0783 27.1689C20.1605 27.1938 20.2727 27.2189 20.4199 27.241C20.7165 27.2853 21.1015 27.3091 21.5708 27.313C22.5101 27.3209 23.6791 27.2491 24.9561 27.1586C25.1976 27.1415 25.4434 27.1236 25.6924 27.1055C28.0029 26.9374 30.5776 26.7502 32.3468 26.9799C32.8682 27.0476 33.2333 27.3691 33.4627 27.653C33.697 27.9431 33.8791 28.3012 34.0263 28.6683C34.3227 29.4073 34.5574 30.3871 34.7429 31.4844C35.1166 33.6938 35.3231 36.5784 35.3502 39.4475C35.3773 42.3155 35.2256 45.2201 34.8648 47.4663C34.6855 48.5824 34.4467 49.5882 34.1271 50.3578C33.9676 50.742 33.7697 51.1124 33.5153 51.4142C33.2605 51.7166 32.8957 52.0108 32.4044 52.104C30.8503 52.3989 24.924 52.8147 19.3067 52.9531C16.4819 53.0227 13.6902 53.0234 11.5192 52.8998C10.4377 52.8382 9.47976 52.7443 8.73825 52.6047C8.36952 52.5353 8.02159 52.4487 7.7263 52.335C7.46921 52.2361 7.08452 52.0561 6.83227 51.7033C5.96456 50.4898 5.60876 48.6631 5.47697 46.696C5.34213 44.6833 5.43304 42.3238 5.60741 39.8924C5.73483 38.1155 5.90489 36.3098 6.07043 34.552C6.36523 31.4217 6.64572 28.4435 6.64572 26.0504C6.64572 18.313 8.77567 12.3069 13.1933 8.21768C14.3995 7.10249 16.0794 6.29542 17.8615 5.70226C19.6579 5.10438 21.6375 4.69823 23.5114 4.42816C25.3884 4.15765 27.1814 4.02053 28.6141 3.96785C30.0148 3.91636 31.1504 3.94232 31.6741 4.02609C32.3515 4.13448 32.7278 4.64742 32.9173 5.02891C33.1156 5.42798 33.229 5.90748 33.2972 6.37855C33.4355 7.33446 33.4243 8.52788 33.3207 9.67046C33.2168 10.816 33.0137 11.9806 32.7352 12.8834C32.5982 13.3276 32.4264 13.7638 32.2065 14.1101C32.0306 14.3871 31.6093 14.947 30.8838 14.947C30.2687 14.947 28.8744 15.023 27.423 15.2475C25.9199 15.4799 24.5709 15.842 23.8876 16.3094C22.3144 17.3854 21.2637 18.8779 20.7299 20.8378C20.6958 20.9632 20.6599 21.0936 20.6229 21.2284C20.3287 22.2981 19.9591 23.6418 19.7901 24.8638C19.6947 25.5531 19.6745 26.133 19.7403 26.5623C19.8081 27.0051 19.9361 27.1075 19.9645 27.1254ZM19.9645 27.1254C19.9643 27.1253 19.9644 27.1253 19.9645 27.1254Z" stroke="#FAED23" stroke-width="2"/>
<path d="M45.1346 8.23603C40.9464 12.3282 38.9343 18.3277 38.9343 26.0502C38.9343 28.4454 38.6682 31.4284 38.3888 34.5607C38.232 36.3179 38.0711 38.1222 37.9505 39.896C37.7854 42.3268 37.6995 44.6834 37.827 46.6923C37.9516 48.6553 38.2873 50.4731 39.1064 51.6823C39.3484 52.0395 39.7222 52.2255 39.9746 52.3281C40.2613 52.4446 40.5972 52.5326 40.9497 52.6026C41.6587 52.7435 42.5714 52.8378 43.5978 52.8995C45.6589 53.0233 48.307 53.0225 50.9842 52.9529C56.3047 52.8146 61.9277 52.3988 63.4097 52.1019C63.9041 52.0029 64.2597 51.6937 64.4994 51.3936C64.7407 51.0914 64.9274 50.722 65.0776 50.3402C65.3789 49.5743 65.6045 48.5722 65.7741 47.4579C66.1153 45.2154 66.259 42.3141 66.2333 39.4479C66.2077 36.5805 66.0121 33.6987 65.6587 31.4927C65.4831 30.397 65.2614 29.4206 64.9819 28.6851C64.8433 28.3204 64.6717 27.9636 64.4496 27.6734C64.2358 27.394 63.8785 27.0531 63.3491 26.9806C61.6614 26.7493 59.2104 26.9375 57.0247 27.1054C56.7883 27.1236 56.5549 27.1415 56.326 27.1586C55.1158 27.2492 54.0124 27.3206 53.1274 27.3128C52.6853 27.3089 52.3262 27.2852 52.0519 27.2419C51.9161 27.2205 51.8147 27.1963 51.7425 27.1732C51.6806 27.1534 51.6546 27.1389 51.6521 27.1376C51.6328 27.1238 51.5103 27.0163 51.4455 26.5698C51.3821 26.1333 51.402 25.5477 51.4926 24.8565C51.6532 23.6311 52.0041 22.2843 52.2827 21.215C52.3178 21.0802 52.3518 20.9498 52.3841 20.8247C52.8927 18.8534 53.8917 17.3631 55.3719 16.2945C56.0051 15.8374 57.2655 15.478 58.687 15.2459C60.0568 15.0223 61.3723 14.9468 61.9493 14.9468C62.3312 14.9468 62.6285 14.7798 62.8244 14.6154C63.0154 14.4552 63.1561 14.2613 63.2596 14.0892C63.4668 13.7447 63.6286 13.311 63.7579 12.8689C64.0206 11.9697 64.2126 10.8086 64.3108 9.66551C64.4087 8.52516 64.4191 7.3362 64.2888 6.38571C64.2246 5.91761 64.1181 5.44279 63.9322 5.04775C63.7597 4.68143 63.3995 4.14289 62.7149 4.02726C62.2074 3.94157 61.122 3.9162 59.7951 3.9677C58.4345 4.0205 56.732 4.15793 54.9497 4.42907C53.1705 4.69975 51.2889 5.10708 49.5802 5.70739C47.8843 6.30317 46.2836 7.11477 45.1346 8.23603Z" fill="#FAED23" stroke="#FAED23" stroke-width="2"/>
<path d="M8.78119 5.27651C4.36358 9.36566 2.23361 15.3718 2.23361 23.1092C2.23361 25.5023 1.95312 28.4807 1.65832 31.6109C1.49278 33.3687 1.32272 35.1745 1.1953 36.9513C1.02093 39.3827 0.930022 41.7423 1.06486 43.7549C1.19665 45.7221 1.55245 47.5486 2.42016 48.7621C2.67241 49.1149 3.0571 49.295 3.31419 49.394C3.60948 49.5077 3.95741 49.5942 4.32614 49.6636C5.06765 49.8032 6.02554 49.8972 7.10707 49.9587C9.27812 50.0823 12.0698 50.0816 14.8946 50.012C20.5119 49.8737 26.4382 49.4579 27.9923 49.163C28.4836 49.0698 28.8483 48.7755 29.1032 48.4731C29.3576 48.1714 29.5554 47.801 29.715 47.4167C30.0346 46.6471 30.2734 45.6413 30.4527 44.5251C30.8135 42.2789 30.9652 39.3744 30.9381 36.5065C30.911 33.6373 30.7045 30.7527 30.3308 28.5433C30.1452 27.4459 29.9106 26.4661 29.6142 25.7271C29.467 25.3601 29.2849 25.002 29.0505 24.7118C28.8212 24.4279 28.4561 24.1064 27.9347 24.0387C26.1654 23.809 23.5908 23.9963 21.2803 24.1643C21.0313 24.1824 20.7854 24.2003 20.544 24.2174C19.267 24.3079 18.098 24.3797 17.1587 24.3719C16.6894 24.368 16.3044 24.3442 16.0077 24.2998C15.8606 24.2778 15.7483 24.2526 15.6662 24.2277C15.5815 24.202 15.5506 24.1831 15.5523 24.1842C15.5239 24.1663 15.396 24.0639 15.3282 23.6211C15.2624 23.1918 15.2826 22.612 15.378 21.9227C15.547 20.7007 15.9166 19.3569 16.2108 18.2872C16.2478 18.1524 16.2837 18.022 16.3178 17.8967C16.8516 15.9368 17.9023 14.4442 19.4755 13.3682C20.1588 12.9008 21.5078 12.5388 23.0109 12.3063C24.4622 12.0818 25.8566 12.0059 26.4716 12.0059C27.1972 12.0059 27.6185 11.446 27.7944 11.1689C28.0142 10.8227 28.1861 10.3865 28.3231 9.94219C28.6016 9.03936 28.8047 7.8748 28.9086 6.72929C29.0121 5.58672 29.0234 4.39329 28.885 3.43739C28.8169 2.96632 28.7035 2.48682 28.5052 2.08775C28.3156 1.70626 27.9394 1.19332 27.262 1.08493C26.7383 1.00116 25.6027 0.975195 24.202 1.02669C22.7693 1.07937 20.9763 1.21649 19.0993 1.487C17.2254 1.75707 15.2458 2.16322 13.4494 2.7611C11.6673 3.35426 9.98736 4.16133 8.78119 5.27651Z" stroke="black" stroke-width="2"/>
<path d="M40.7225 5.29511C36.5343 9.38731 34.5222 15.3868 34.5222 23.1092C34.5222 25.5045 34.2561 28.4875 33.9767 31.6197C33.8199 33.377 33.6589 35.1812 33.5384 36.9551C33.3733 39.3859 33.2874 41.7425 33.4149 43.7514C33.5395 45.7144 33.8752 47.5322 34.6943 48.7413C34.9363 49.0986 35.3101 49.2846 35.5625 49.3872C35.8492 49.5037 36.1851 49.5917 36.5376 49.6617C37.2466 49.8026 38.1593 49.8969 39.1857 49.9585C41.2468 50.0824 43.8949 50.0816 46.5721 50.012C51.8926 49.8737 57.5156 49.4579 58.9976 49.161C59.492 49.062 59.8476 48.7528 60.0873 48.4527C60.3286 48.1504 60.5153 47.7811 60.6655 47.3993C60.9668 46.6334 61.1924 45.6312 61.3619 44.517C61.7032 42.2745 61.8468 39.3732 61.8212 36.5069C61.7956 33.6396 61.6 30.7578 61.2465 28.5518C61.071 27.456 60.8493 26.4797 60.5698 25.7442C60.4312 25.3794 60.2596 25.0227 60.0375 24.7325C59.8237 24.453 59.4664 24.1122 58.937 24.0397C57.2493 23.8083 54.7982 23.9966 52.6126 24.1645C52.3762 24.1827 52.1428 24.2006 51.9139 24.2177C50.7037 24.3083 49.6002 24.3797 48.7153 24.3719C48.2732 24.368 47.9141 24.3443 47.6398 24.301C47.504 24.2796 47.4026 24.2554 47.3304 24.2323C47.2685 24.2125 47.2425 24.198 47.24 24.1967C47.2207 24.1828 47.0982 24.0754 47.0334 23.6289C46.97 23.1924 46.9899 22.6068 47.0805 21.9156C47.2411 20.6902 47.592 19.3434 47.8706 18.2741C47.9057 18.1393 47.9397 18.0089 47.972 17.8837C48.4806 15.9125 49.4796 14.4222 50.9598 13.3536C51.593 12.8964 52.8534 12.5371 54.2749 12.305C55.6447 12.0814 56.9601 12.0059 57.5372 12.0059C57.9191 12.0059 58.2164 11.8389 58.4123 11.6745C58.6033 11.5143 58.744 11.3204 58.8475 11.1483C59.0547 10.8038 59.2165 10.3701 59.3458 9.92794C59.6085 9.02874 59.8005 7.86761 59.8987 6.72459C59.9966 5.58424 60.007 4.39528 59.8767 3.4448C59.8125 2.97669 59.706 2.50187 59.5201 2.10684C59.3476 1.74051 58.9874 1.20197 58.3028 1.08635C57.7953 1.00065 56.7099 0.975282 55.383 1.02678C54.0224 1.07958 52.3199 1.21701 50.5376 1.48816C48.7583 1.75884 46.8768 2.16616 45.1681 2.76647C43.4722 3.36226 41.8714 4.17385 40.7225 5.29511Z" stroke="black" stroke-width="2"/>
</g>
<defs>
<clipPath id="clip0_79_7">
<rect width="68" height="54" fill="white"/>
</clipPath>
</defs>
</svg>
